# xmcd CD database file
#
# Track frame offsets:
#	150
#	23167
#	42475
#	64036
#	74046
#	97885
#	118472
#	134882
#
# Disc length: 2318 seconds
#
# Revision: 0
# Processed by: cddbd v1.5.2PL0 Copyright (c) Steve Scherf et al.
# Submitted via: CDex 1.70beta2
#
DISCID=7e090c08
DTITLE=Ky+Bala Dee - Out Of Place
DYEAR=2011
DGENRE=Jazz
TTITLE0=Ce palot fou(狂わしいキス)
TTITLE1=Sanjiye/喜びの雨
TTITLE2=Uta no niwa/歌の庭
TTITLE3=Les courses/かけっこ
TTITLE4=Mai kasireta/出発の前
TTITLE5=Deni ni kagni/美しい人
TTITLE6=Tairyo utaikomi/大漁唄い込み
TTITLE7=Onirik pentaphilia/夢のペンタフィリア
EXTD=YEAR: 2011
EXTT0=
EXTT1=
EXTT2=
EXTT3=
EXTT4=
EXTT5=
EXTT6=
EXTT7=
PLAYORDER=
